<svg version="1.1" id="Layer_1" xmlns="http://www.w3.org/2000/svg" xmlns:xlink="http://www.w3.org/1999/xlink" x="0px" y="0px"
	 width="100%" viewBox="0 0 1024 1024" enable-background="new 0 0 1024 1024" xml:space="preserve">
<path fill="#E8E4D9" opacity="1.000000" stroke="none" 
	d="
M249.538696,527.657959 
	C196.555588,508.907684 161.832016,472.853149 144.851883,419.842896 
	C138.126862,398.847992 136.897537,377.268311 139.402588,355.317993 
	C143.172470,322.284851 156.396561,293.530273 178.206161,268.818878 
	C202.111450,241.732910 231.956909,224.360916 267.588043,217.662079 
	C314.252777,208.888870 356.260956,220.304199 394.344116,247.865585 
	C395.423706,248.646881 396.484131,249.458893 397.511414,250.307449 
	C402.158661,254.146103 402.147980,254.470444 398.117859,258.800659 
	C392.898346,264.408875 387.540558,269.904388 382.595093,275.747070 
	C377.514587,281.749268 373.832703,288.702637 370.366882,295.742920 
	C367.686035,301.188599 367.536743,301.236725 363.056885,297.545471 
	C346.701111,284.068909 328.094025,275.376923 306.963867,273.600586 
	C275.103363,270.922241 247.290283,280.623169 225.367767,304.305603 
	C203.079376,328.383301 195.023026,357.286743 199.278519,389.615112 
	C205.188568,434.512817 237.420715,468.519714 281.175934,475.369934 
	C309.939728,479.873138 336.375061,473.767029 359.581696,455.443176 
	C366.543518,449.946136 366.326141,447.436096 371.789398,457.833801 
	C378.516663,470.637268 387.155396,482.006531 398.100098,491.516968 
	C401.617065,494.573029 401.383575,496.673859 397.752136,499.706909 
	C374.078735,519.479370 347.002960,531.052734 316.358398,534.464661 
	C293.713318,536.985962 271.563324,534.967529 249.538696,527.657959 
z"/>
<path fill="#E8E4D9" opacity="1.000000" stroke="none" 
	d="
M689.885864,531.173950 
	C665.096924,524.747803 643.428711,513.374817 625.016785,496.475983 
	C625.115051,494.206909 626.528809,493.405792 627.599915,492.435211 
	C639.072998,482.038483 648.304993,469.919281 655.749329,456.365234 
	C659.436890,449.651276 659.503479,449.812347 665.282776,454.502808 
	C687.241516,472.324524 712.259277,478.887482 740.341614,475.895111 
	C779.396423,471.733582 814.444641,441.473145 824.115479,399.541565 
	C837.413574,341.882935 802.435791,288.659363 750.812012,276.151001 
	C718.396240,268.296753 689.203857,275.536591 663.620239,297.043121 
	C662.506042,297.979736 661.677673,299.370667 659.074707,299.654358 
	C650.445374,282.951691 640.060303,267.014618 624.510559,254.708221 
	C627.487244,250.598221 630.740540,247.507248 634.351440,244.946686 
	C657.748962,228.355347 683.560730,218.317581 712.282532,215.508621 
	C784.247864,208.470520 864.244263,256.144043 883.082458,342.031769 
	C897.459534,407.579865 867.239624,477.443970 809.778992,512.387695 
	C780.330811,530.296082 748.448486,537.502380 714.306580,535.175720 
	C706.226013,534.625061 698.139221,533.399963 689.885864,531.173950 
z"/>
<path fill="#E8E4D9" opacity="1.000000" stroke="none" 
	d="
M649.036987,455.960693 
	C641.206848,469.295715 631.389038,480.529297 620.322937,491.292084 
	C612.089478,484.347992 605.334106,476.392731 599.177307,467.928070 
	C584.331055,447.516846 574.545776,424.840271 571.046814,399.867188 
	C565.754028,362.091187 571.903198,326.331848 591.980652,293.415680 
	C598.688354,282.418762 606.363586,272.186462 615.496155,263.084656 
	C620.002014,258.593964 620.837280,258.535370 625.194214,262.941437 
	C648.250549,286.257751 662.685730,314.169495 668.087341,346.421875 
	C674.014038,381.809357 669.968262,416.008362 653.441833,448.281586 
	C652.153259,450.797913 650.639343,453.198883 649.036987,455.960693 
z"/>
<path fill="#E8E4D9" opacity="1.000000" stroke="none" 
	d="
M434.268921,458.172180 
	C427.240326,469.407288 419.039703,479.219025 410.007416,488.397400 
	C407.478241,490.967438 405.836761,491.301971 403.129242,488.594025 
	C378.303986,463.765106 362.454132,434.148865 357.936951,399.355347 
	C351.952179,353.257721 362.224640,311.059692 391.813599,274.390564 
	C395.360046,269.995514 399.551941,266.127045 403.308197,261.893402 
	C405.938080,258.929291 407.900726,259.355072 410.647736,262.047180 
	C433.339111,284.284912 447.839172,311.045074 453.842041,342.097565 
	C461.741241,382.959930 456.048645,421.805573 434.268921,458.172180 
z"/>
<path fill="#E8E4D9" opacity="1.000000" stroke="none" 
	d="
M557.063110,529.298828 
	C501.445038,545.750854 443.859680,528.390930 410.599060,495.844757 
	C426.060181,483.744781 435.972809,467.221924 445.732391,450.684967 
	C491.164825,486.322357 535.953979,485.175446 580.767273,450.982544 
	C582.435852,451.393494 582.959473,452.910187 583.595581,454.206879 
	C590.650269,468.587982 600.202393,481.028931 612.112793,491.749115 
	C616.454529,495.656982 616.164001,496.347839 611.628723,500.181671 
	C595.628784,513.706970 577.501953,523.246033 557.063110,529.298828 
z"/>
<path fill="#E8E4D9" opacity="1.000000" stroke="none" 
	d="
M486.798889,276.913696 
	C472.536865,280.802673 463.037079,286.193329 446.862976,299.524323 
	C444.908875,299.336700 444.241516,297.715485 443.575867,296.243805 
	C436.940125,281.572296 426.974060,269.440765 415.226807,258.605835 
	C410.609314,254.346970 410.621704,254.017227 415.710297,249.924591 
	C437.519073,232.384369 461.923157,220.506424 489.853088,216.586929 
	C535.384338,210.197372 575.669067,222.592133 611.588623,250.663818 
	C614.838928,253.204010 615.961975,255.027298 612.267456,258.303772 
	C600.288513,268.927399 591.316345,281.898621 583.818665,295.954407 
	C583.051086,297.393341 582.394897,298.987976 580.774109,299.844513 
	C578.902649,299.782043 577.955017,298.256927 576.740417,297.208923 
	C556.327209,279.595490 532.559631,271.875671 505.778809,273.484680 
	C499.512299,273.861206 493.266479,275.040985 486.798889,276.913696 
z"/>
<path fill="#E8E4D9" opacity="1.000000" stroke="none" 
	d="
M318.054718,657.022705 
	C323.553345,665.277466 328.844666,673.237488 334.857727,682.283325 
	C325.350677,682.283325 317.256195,682.303955 309.161926,682.268799 
	C307.147491,682.260071 306.490784,680.496704 305.586426,679.146667 
	C300.490509,671.539490 295.441315,663.900940 290.328888,656.304932 
	C287.843933,652.612793 278.550201,650.377136 274.721039,652.414429 
	C272.834351,653.418152 273.097198,655.183044 273.088867,656.786255 
	C273.053284,663.614624 272.995728,670.446106 273.161316,677.271179 
	C273.254395,681.107544 271.800903,682.650513 267.870605,682.443726 
	C262.887787,682.181519 257.879517,682.308289 252.884796,682.403076 
	C249.897476,682.459778 248.778198,681.173157 248.785187,678.208191 
	C248.855011,648.561462 248.856812,618.914612 248.844803,589.267761 
	C248.843719,586.590881 249.418030,584.685120 252.668594,584.783203 
	C269.127228,585.279724 285.656067,583.511658 302.048584,585.741028 
	C329.620483,589.490967 336.577301,615.647888 328.222626,633.427307 
	C325.036957,640.206787 319.315521,644.440247 312.797028,647.899536 
	C313.667755,651.579163 316.469208,653.760742 318.054718,657.022705 
M273.061920,618.500000 
	C273.072205,621.323242 273.191040,624.151367 273.064484,626.968445 
	C272.916199,630.269470 274.085754,631.863037 277.645813,631.748657 
	C283.618622,631.556702 289.605408,631.805969 295.578857,631.624207 
	C302.211060,631.422546 306.819397,627.045471 307.589447,620.573608 
	C308.400452,613.757568 304.903748,608.460144 298.432312,606.495789 
	C294.054626,605.167053 289.581085,605.344116 285.103912,605.347351 
	C273.011047,605.356018 273.011047,605.348755 273.061920,618.500000 
z"/>
<path fill="#E8E4D9" opacity="1.000000" stroke="none" 
	d="
M770.760132,640.572510 
	C769.815735,627.875854 771.454346,616.216797 778.505798,605.774841 
	C788.030518,591.670532 801.415222,584.548279 818.288574,583.620239 
	C836.979065,582.592224 852.732178,588.355957 864.149475,603.723450 
	C886.644348,634.001160 868.865784,677.171448 831.664490,683.512146 
	C806.046509,687.878662 776.693359,673.835205 770.760132,640.572510 
M848.873901,640.343933 
	C852.413818,625.313293 843.364990,609.186096 829.373169,605.588989 
	C814.350708,601.726990 799.799072,610.334290 795.739563,625.221863 
	C791.033020,642.482361 801.915344,657.902222 814.789551,661.525940 
	C830.169800,665.855225 844.031799,657.503967 848.873901,640.343933 
z"/>
<path fill="#E8E4D9" opacity="1.000000" stroke="none" 
	d="
M691.332275,595.012634 
	C691.122681,608.059509 692.982117,606.201172 680.440186,606.310242 
	C669.609009,606.404419 658.770142,606.543762 647.947144,606.230347 
	C643.067322,606.089050 641.056946,607.343933 641.255493,612.597168 
	C641.746948,625.599121 639.580078,623.477478 652.483215,623.605774 
	C663.604858,623.716309 674.728455,623.628723 686.142700,623.628723 
	C686.142700,630.466858 686.142700,636.701111 686.142700,643.386108 
	C673.486572,643.386108 661.041077,643.388550 648.595581,643.385132 
	C641.363953,643.383179 641.292358,643.379700 641.366638,650.439453 
	C641.502014,663.308350 639.568054,661.531799 652.399292,661.636597 
	C663.563904,661.727844 674.732239,661.794434 685.893799,661.591431 
	C689.890381,661.518860 691.767700,662.606384 691.405701,666.899780 
	C691.112732,670.374695 691.123779,673.911499 691.400940,677.388916 
	C691.727539,681.486267 689.870667,682.453247 686.129211,682.433289 
	C665.132507,682.321045 644.133972,682.307373 623.137939,682.478943 
	C618.974121,682.512939 617.695740,681.079041 617.714783,676.996338 
	C617.850159,648.000549 617.869629,619.003479 617.722900,590.007874 
	C617.701050,585.676758 619.372559,584.704529 623.337891,584.734192 
	C643.500916,584.885193 663.665649,584.803345 683.829834,584.799805 
	C691.315430,584.798523 691.315491,584.794556 691.331421,592.521973 
	C691.332764,593.188660 691.331970,593.855408 691.332275,595.012634 
z"/>
<path fill="#E8E4D9" opacity="1.000000" stroke="none" 
	d="
M434.007629,584.730408 
	C445.308197,585.070679 456.167450,583.814148 466.911407,585.675476 
	C480.246643,587.985718 491.267151,593.944824 494.945709,607.856873 
	C498.513123,621.348755 497.477539,634.491821 485.899597,644.453491 
	C479.412537,650.034973 471.598175,652.880249 463.034210,653.289673 
	C458.046112,653.528137 453.036560,653.500549 448.042358,653.371887 
	C443.884521,653.264832 441.961609,654.744507 442.163513,659.212463 
	C442.449066,665.530579 442.140472,671.873230 442.264557,678.201904 
	C442.322479,681.156250 441.257080,682.471191 438.217041,682.403137 
	C433.221497,682.291199 428.216675,682.260742 423.224609,682.441528 
	C419.780212,682.566223 418.539185,681.238831 418.577057,677.776917 
	C418.710083,665.616028 418.604034,653.452515 418.605438,641.290039 
	C418.607483,623.962585 418.705750,606.634399 418.565369,589.308167 
	C418.537720,585.896484 419.417511,584.401184 423.016296,584.655823 
	C426.498230,584.902161 430.010284,584.723083 434.007629,584.730408 
M469.827423,628.234863 
	C476.420990,616.750549 471.066528,606.848267 457.808044,606.149414 
	C454.000458,605.948792 450.174072,606.132141 446.357635,606.064331 
	C443.462402,606.012878 442.105042,607.232544 442.210846,610.240784 
	C442.339203,613.889160 442.226471,617.545776 442.223999,621.198853 
	C442.215576,633.683105 442.216614,633.666199 454.860443,633.658386 
	C460.254578,633.655029 465.538269,633.403931 469.827423,628.234863 
z"/>
<path fill="#E8E4D9" opacity="1.000000" stroke="none" 
	d="
M203.128265,606.382751 
	C201.316238,606.386292 199.976425,606.477905 198.651260,606.377136 
	C194.883682,606.090698 194.285568,608.287109 194.311478,611.400330 
	C194.398834,621.898071 194.344162,632.396973 194.343735,642.895447 
	C194.343262,654.227112 194.212921,665.561096 194.412506,676.889282 
	C194.482376,680.855408 193.456558,682.737122 189.134140,682.444031 
	C184.655426,682.140442 180.128204,682.175781 175.644211,682.438416 
	C171.591354,682.675842 170.565903,680.917053 170.588287,677.148254 
	C170.715042,655.818726 170.654510,634.488098 170.644592,613.157837 
	C170.641449,606.419922 170.622925,606.408630 164.070328,606.392212 
	C158.071243,606.377136 152.069824,606.292053 146.073868,606.430481 
	C142.921005,606.503174 141.494949,605.395142 141.621185,602.104614 
	C141.787155,597.778320 141.789536,593.435974 141.622940,589.109802 
	C141.493881,585.758118 143.072144,584.812866 146.147003,584.820435 
	C170.476624,584.880310 194.806519,584.880859 219.136139,584.823853 
	C222.068695,584.817017 223.427841,585.846436 223.344498,588.892090 
	C223.221466,593.388000 223.206207,597.892761 223.340012,602.387878 
	C223.432312,605.488159 221.983749,606.452881 219.104065,606.393860 
	C213.940536,606.288086 208.773041,606.375977 203.128265,606.382751 
z"/>
<path fill="#E8E4D9" opacity="1.000000" stroke="none" 
	d="
M530.089600,584.680054 
	C534.073242,584.675781 537.588074,584.906311 541.057373,584.607727 
	C545.284424,584.243896 546.445007,585.978577 546.416382,590.035828 
	C546.265442,611.502014 546.351685,632.969910 546.361328,654.437195 
	C546.364502,661.585205 546.383972,661.621887 553.626953,661.638672 
	C564.776611,661.664551 575.929016,661.792725 587.074646,661.581543 
	C591.072937,661.505859 592.424011,662.980286 592.198181,666.816833 
	C591.973694,670.631165 592.048462,674.472229 592.177551,678.295288 
	C592.279663,681.320007 590.948364,682.392090 588.012146,682.387573 
	C567.710022,682.356384 547.407593,682.376343 527.105713,682.481567 
	C523.877197,682.498291 522.785339,681.258057 522.794800,678.055298 
	C522.881714,648.600403 522.962524,619.144470 522.760315,589.690735 
	C522.721436,584.034790 526.063782,584.615112 530.089600,584.680054 
z"/>
<path fill="#E8E4D9" opacity="1.000000" stroke="none" 
	d="
M385.346161,629.000122 
	C385.350433,644.968811 385.359772,660.437500 385.355896,675.906189 
	C385.354279,682.367493 385.341522,682.370728 378.681030,682.376831 
	C374.356476,682.380798 370.029510,682.284485 365.708221,682.402039 
	C362.702240,682.483887 361.623230,681.199524 361.628998,678.238892 
	C361.687042,648.465881 361.697662,618.692566 361.617401,588.919617 
	C361.608429,585.587280 362.999298,584.573364 366.098236,584.660950 
	C370.917725,584.797180 375.752991,584.859253 380.565002,584.620117 
	C384.328308,584.433167 385.440643,585.981873 385.400208,589.579407 
	C385.254303,602.551514 385.344727,615.526306 385.346161,629.000122 
z"/>
<path fill="#E8E4D9" opacity="1.000000" stroke="none" 
	d="
M225.000107,731.634888 
	C250.828323,731.638916 276.156525,731.643494 301.484711,731.648804 
	C302.817749,731.649109 304.154846,731.724182 305.483002,731.645569 
	C308.208435,731.484314 310.012604,732.189270 309.959595,735.427185 
	C309.905334,738.742371 307.817078,739.122925 305.253510,739.109131 
	C300.754578,739.084839 296.255432,739.105347 291.756378,739.105835 
	C244.599396,739.111023 197.442398,739.116699 150.285416,739.117371 
	C148.786240,739.117432 147.287064,739.064148 145.787872,739.038086 
	C143.022812,738.989990 142.689392,737.196838 142.680893,734.960083 
	C142.671951,732.604187 143.765656,731.681396 146.016464,731.683716 
	C154.014618,731.691895 162.012833,731.640686 170.011017,731.637024 
	C188.174042,731.628723 206.337067,731.635132 225.000107,731.634888 
z"/>
<path fill="#E8E4D9" opacity="1.000000" stroke="none" 
	d="
M832.000000,739.217896 
	C795.018311,739.191223 758.536560,739.166138 722.054871,739.127380 
	C720.392639,739.125610 718.708618,739.143738 717.073730,738.895813 
	C714.910828,738.567810 714.802063,736.822815 714.785706,735.070862 
	C714.767944,733.170044 715.293884,731.776367 717.508179,731.727234 
	C719.006653,731.694031 720.505188,731.643555 722.003723,731.643372 
	C770.146362,731.638123 818.289001,731.638062 866.431641,731.638062 
	C867.264526,731.638062 868.097900,731.669556 868.930237,731.650879 
	C871.321777,731.597351 873.170898,731.992126 873.238892,735.081055 
	C873.307373,738.189087 871.830688,739.168823 868.981506,739.163269 
	C856.821106,739.139465 844.660522,739.192139 832.000000,739.217896 
z"/>
<path fill="#E8E4D9" opacity="1.000000" stroke="none" 
	d="
M535.307861,736.803955 
	C534.165222,735.414307 533.229248,734.291870 531.529236,732.253357 
	C531.529236,741.075317 531.529236,748.796753 531.529236,756.176270 
	C529.223694,757.909485 527.164856,757.205688 525.232117,757.334167 
	C522.654419,757.505554 521.687012,756.151306 521.693359,753.693604 
	C521.723877,741.864136 521.694275,730.034485 521.709290,718.204895 
	C521.711243,716.675171 521.805908,714.936096 523.829346,714.853882 
	C527.047302,714.723206 530.536865,713.592896 533.036682,716.939453 
	C536.922913,722.142090 540.868774,727.300232 544.807983,732.462952 
	C545.699829,733.631775 546.668274,734.742126 547.616516,735.897766 
	C550.110291,734.852966 549.550476,732.796875 549.602295,731.126831 
	C549.715820,727.464844 549.943604,723.763794 549.557678,720.139038 
	C549.007935,714.976074 551.735168,714.366516 555.841919,714.624207 
	C558.426819,714.786377 559.348206,715.860535 559.338989,718.321533 
	C559.294556,730.151123 559.325684,741.980896 559.306030,753.810608 
	C559.303467,755.322876 559.289490,757.031555 557.237305,757.197083 
	C554.295044,757.434265 551.285339,758.041504 549.066956,755.016602 
	C544.634521,748.972473 540.041321,743.046204 535.307861,736.803955 
z"/>
<path fill="#E8E4D9" opacity="1.000000" stroke="none" 
	d="
M409.147583,739.438354 
	C408.328094,728.313354 413.112976,719.669617 421.899689,715.804443 
	C430.601990,711.976440 441.747772,713.817932 447.778931,720.111145 
	C447.750275,721.751221 446.259949,722.574341 445.587769,723.861633 
	C443.776794,727.329834 441.733734,728.058044 438.057312,725.757568 
	C433.105835,722.659302 426.926636,723.649780 423.294067,727.253906 
	C419.564117,730.954773 418.463593,736.856567 420.638062,741.497681 
	C422.893921,746.312561 427.536713,749.109619 432.709808,748.578430 
	C434.161560,748.429382 435.604340,747.895386 436.977112,747.351074 
	C438.633453,746.694275 439.786560,745.548035 439.540283,743.548340 
	C439.242126,741.127563 437.329285,741.267456 435.737854,741.439392 
	C431.325104,741.915894 430.344666,739.700745 430.604004,735.813232 
	C430.774445,733.258240 431.892548,732.225098 434.246124,732.106995 
	C434.578308,732.090271 434.915375,732.020508 435.241455,732.055786 
	C439.775055,732.546814 446.224182,729.840027 448.430328,733.574341 
	C451.219421,738.295471 449.310181,744.901367 449.145721,750.694885 
	C449.110107,751.951050 447.993469,752.679993 447.038605,753.341431 
	C433.122833,762.982361 411.885101,758.621460 409.147583,739.438354 
z"/>
<path fill="#E8E4D9" opacity="1.000000" stroke="none" 
	d="
M469.723755,741.995728 
	C469.716431,734.008179 469.798248,726.518311 469.661316,719.032532 
	C469.602844,715.835022 470.805634,714.576172 474.034973,714.628235 
	C482.186615,714.759888 490.343414,714.770996 498.494720,714.630798 
	C502.198669,714.567017 502.355072,716.745789 502.339935,719.484558 
	C502.324768,722.226807 502.126373,724.463867 498.444336,724.345398 
	C493.790039,724.195435 489.126617,724.354492 484.467834,724.308533 
	C482.060028,724.284729 480.165344,724.572693 480.270660,727.733704 
	C480.364075,730.536804 482.068329,730.955139 484.274200,730.946106 
	C487.602203,730.932434 490.937317,731.067139 494.256378,730.892090 
	C497.649628,730.713074 499.396362,731.540527 499.461853,735.510864 
	C499.531250,739.717651 497.694580,740.651367 494.069489,740.439758 
	C490.918396,740.255859 487.745514,740.478577 484.587585,740.368835 
	C481.827087,740.272949 480.154297,740.963867 480.207581,744.215332 
	C480.257751,747.279236 481.956116,747.731506 484.418365,747.703735 
	C489.076904,747.651184 493.740845,747.832214 498.394592,747.677246 
	C501.993134,747.557434 502.421326,749.602234 502.354675,752.443176 
	C502.292358,755.099976 502.335968,757.452637 498.572266,757.397400 
	C490.253967,757.275208 481.932343,757.312378 473.612793,757.377380 
	C470.851074,757.398926 469.701538,756.180847 469.746002,753.477173 
	C469.806152,749.817627 469.737640,746.155884 469.723755,741.995728 
z"/>
<path fill="#E8E4D9" opacity="1.000000" stroke="none" 
	d="
M384.556519,730.625061 
	C388.203033,739.385986 391.689331,747.800293 395.188538,756.245605 
	C387.656769,758.721558 385.567047,758.006653 382.710815,751.843079 
	C381.584198,749.411987 380.114807,748.152588 377.369141,748.354614 
	C375.380951,748.500977 373.352203,748.558105 371.377625,748.335327 
	C366.844147,747.823608 363.903992,749.135071 362.363678,753.904114 
	C360.354950,760.123657 355.320038,756.470215 350.568542,757.451538 
	C353.264771,750.738647 355.501770,745.052734 357.829254,739.404053 
	C360.682983,732.478149 363.804352,725.655090 366.424591,718.643616 
	C367.653198,715.356018 369.570648,714.531921 372.807892,714.532227 
	C376.157410,714.532532 378.458679,715.164185 379.633240,718.746948 
	C380.925140,722.687683 382.784271,726.442566 384.556519,730.625061 
M371.852997,738.874146 
	C373.289429,738.840515 374.830994,739.263611 376.153595,737.745789 
	C376.072998,734.619385 374.824402,731.834167 372.790131,728.829102 
	C371.830536,730.987427 370.980133,732.590637 370.404144,734.287048 
	C369.879944,735.830872 368.332977,737.702942 371.852997,738.874146 
z"/>
<path fill="#E8E4D9" opacity="1.000000" stroke="none" 
	d="
M596.812744,714.469543 
	C606.046082,712.768921 613.962219,715.478271 618.093567,721.674072 
	C617.350525,722.662537 616.480103,723.659912 615.789429,724.769226 
	C613.755493,728.035950 611.763428,728.713196 608.200562,726.207947 
	C602.956482,722.520447 596.426636,723.572327 592.837036,727.842468 
	C588.921570,732.500183 589.130615,740.237427 593.294983,744.795410 
	C597.415649,749.305542 603.022766,750.076172 608.455872,745.719238 
	C612.880127,742.171387 614.763428,745.379761 616.916077,747.843689 
	C619.853271,751.205627 616.136475,752.537598 614.330444,753.927124 
	C607.311096,759.327393 596.950012,759.778259 589.411804,755.303711 
	C581.697144,750.724548 577.994690,741.440491 579.706604,730.967651 
	C581.046570,722.770752 587.296204,716.624512 596.812744,714.469543 
z"/>
<path fill="#E8E4D9" opacity="1.000000" stroke="none" 
	d="
M656.549072,756.545654 
	C656.064636,756.948120 655.911560,757.035034 655.750122,757.055176 
	C646.835388,758.166748 646.185791,758.006348 646.845520,749.278442 
	C647.379150,742.219543 644.753113,736.751526 641.065552,731.272522 
	C637.671692,726.229919 634.577576,720.985657 631.247620,715.664368 
	C640.419189,713.167114 642.536194,713.979675 646.548096,720.933716 
	C648.120728,723.659790 649.792969,726.328430 651.641479,729.390198 
	C654.677917,726.868286 656.012024,723.627197 657.791077,720.777466 
	C662.037292,713.975525 663.584106,713.308594 672.706787,715.589417 
	C665.265381,728.386841 654.291504,739.788757 656.549072,756.545654 
z"/>
</svg>